# xmcd
#
# Track frame offsets: 
#        150
#        21458
#        48628
#        76398
#        125397
#        141378
#        183646
#        214033
#        246724
#        265302
#
# Disc length: 3895 seconds
#
# Revision: 0
# Processed by: cddbd v1.5.2PL0 Copyright (c) Steve Scherf et al.
# Submitted via: ExactAudioCopyFreeDBPlugin 1.0
#
DISCID=9f0f350a
DTITLE=Ronnie Earl and The Broadcasters - Good News
DYEAR=2014
DGENRE=Blues
TTITLE0=I Met Her on That Train
TTITLE1=Change Is Gonna Come
TTITLE2=Time to Remember
TTITLE3=In the Wee Hours
TTITLE4=Good News
TTITLE5=Six String Blessing
TTITLE6=Marje's Melody
TTITLE7=Blues for Henry
TTITLE8=Puddin' Pie
TTITLE9=Runnin' in Peace
EXTD=
EXTT0=
EXTT1=
EXTT2=
EXTT3=
EXTT4=
EXTT5=
EXTT6=
EXTT7=
EXTT8=
EXTT9=
PLAYORDER=
